<?xml version="1.0" encoding="UTF-8" standalone="no"?>
<svg
   xmlns:dc="http://purl.org/dc/elements/1.1/"
   xmlns:cc="http://creativecommons.org/ns#"
   xmlns:rdf="http://www.w3.org/1999/02/22-rdf-syntax-ns#"
   xmlns:svg="http://www.w3.org/2000/svg"
   xmlns="http://www.w3.org/2000/svg"
   xmlns:xlink="http://www.w3.org/1999/xlink"
   xmlns:sodipodi="http://sodipodi.sourceforge.net/DTD/sodipodi-0.dtd"
   xmlns:inkscape="http://www.inkscape.org/namespaces/inkscape"
   id="OBJECTS"
   viewBox="0 0 223.82 187.94"
   version="1.1"
   sodipodi:docname="details-1-office-worker.svg"
   inkscape:version="0.92.4 (5da689c313, 2019-01-14)">
  <metadata
     id="metadata6406">
    <rdf:RDF>
      <cc:Work
         rdf:about="">
        <dc:format>image/svg+xml</dc:format>
        <dc:type
           rdf:resource="http://purl.org/dc/dcmitype/StillImage" />
      </cc:Work>
    </rdf:RDF>
  </metadata>
  <sodipodi:namedview
     pagecolor="#ffffff"
     bordercolor="#666666"
     borderopacity="1"
     objecttolerance="10"
     gridtolerance="10"
     guidetolerance="10"
     inkscape:pageopacity="0"
     inkscape:pageshadow="2"
     inkscape:window-width="1920"
     inkscape:window-height="986"
     id="namedview6404"
     showgrid="false"
     inkscape:zoom="2"
     inkscape:cx="62.48732"
     inkscape:cy="167.26926"
     inkscape:window-x="-11"
     inkscape:window-y="-11"
     inkscape:window-maximized="1"
     inkscape:current-layer="OBJECTS" />
  <defs
     id="defs6267">
    <style
       id="style6245">.cls-1{fill:#f0f0f0;}.cls-2{fill:url(#linear-gradient);}.cls-3{clip-path:url(#clip-path);}.cls-4{clip-path:url(#clip-path-2);}.cls-5{fill:url(#linear-gradient-4);}.cls-6{fill:#d1e8e6;}.cls-7{fill:#00bfd8;}.cls-8{fill:#fff;}.cls-9{fill:#c5e0e2;}.cls-10{fill:#dfe2ef;}.cls-11{fill:#3d415b;}.cls-12,.cls-26{fill:none;stroke:#3d415b;stroke-miterlimit:10;}.cls-12{stroke-width:2.496px;}.cls-13{fill:#ffe0bc;}.cls-14{fill:#efc9a3;}.cls-15{fill:#129093;}.cls-16{fill:#303348;}.cls-17{fill:#282c3c;}.cls-18{fill:#007c86;}.cls-19{fill:#c2dff1;}.cls-20{fill:#a5c3d3;}.cls-21{fill:#ecf2f5;}.cls-22{fill:#fcd8b6;}.cls-23{fill:#29323d;}.cls-24{fill:#33d18d;}.cls-25{fill:#8b4200;}.cls-26{stroke-width:2px;}</style>
    <linearGradient
       id="linear-gradient"
       x1="11.085"
       y1="94.946"
       x2="205.828"
       y2="94.946"
       gradientUnits="userSpaceOnUse">
      <stop
         offset="0"
         stop-color="#00bfc2"
         id="stop6247" />
      <stop
         offset="0.246"
         stop-color="#00bbc5"
         id="stop6249" />
      <stop
         offset="0.49"
         stop-color="#00afcf"
         id="stop6251" />
      <stop
         offset="0.732"
         stop-color="#009bdf"
         id="stop6253" />
      <stop
         offset="0.972"
         stop-color="#0080f5"
         id="stop6255" />
      <stop
         offset="1"
         stop-color="#007cf8"
         id="stop6257" />
    </linearGradient>
    <clipPath
       id="clip-path">
      <path
         class="cls-1"
         d="M142.192,78.942C107.7,58.1,91.425-5.932,38.182,32.332S7.017,149.21,58.038,168.223s116.665,8.272,135.138-27.048C224.741,80.823,165.328,92.923,142.192,78.942Z"
         id="path6260" />
    </clipPath>
    <clipPath
       id="clip-path-2">
      <path
         class="cls-2"
         d="M145.8,74.942C111.315,54.1,95.036-9.932,41.793,28.332S10.628,145.21,61.65,164.223s116.665,8.272,135.138-27.048C228.353,76.823,168.939,88.923,145.8,74.942Z"
         id="path6263" />
    </clipPath>
    <linearGradient
       id="linear-gradient-4"
       x1="5.899"
       y1="120.193"
       x2="-12.674903"
       y2="141.59113"
       xlink:href="#linear-gradient" />
    <linearGradient
       inkscape:collect="always"
       xlink:href="#linear-gradient"
       id="linearGradient8360"
       gradientUnits="userSpaceOnUse"
       x1="11.085"
       y1="94.946"
       x2="205.54645"
       y2="-45.549618"
       gradientTransform="translate(-0.4375,-0.125)" />
  </defs>
  <title
     id="title6269">details-1-office-worker</title>
  <path
     class="cls-1"
     d="M142.192,78.942C107.7,58.1,91.425-5.932,38.182,32.332S7.017,149.21,58.038,168.223s116.665,8.272,135.138-27.048C224.741,80.823,165.328,92.923,142.192,78.942Z"
     id="path6271" />
  <path
     class="cls-1"
     d="M142.192,78.942C107.7,58.1,91.425-5.932,38.182,32.332S7.017,149.21,58.038,168.223s116.665,8.272,135.138-27.048C224.741,80.823,165.328,92.923,142.192,78.942Z"
     id="path6273" />
  <g
     class="cls-3"
     clip-path="url(#clip-path)"
     id="g6277">
    <path
       class="cls-1"
       d="M2.287,153.024s29.411-29.492,78.534-15.5,78.045,2,71.946-72.159c0,0,69.044,9.633,60.192,58.693C202.217,183.6,63.55,206.319,2.287,153.024Z"
       id="path6275" />
  </g>
  <path
     class="cls-2"
     d="M145.8,74.942C111.315,54.1,95.036-9.932,41.793,28.332S10.628,145.21,61.65,164.223s116.665,8.272,135.138-27.048C228.353,76.823,168.939,88.923,145.8,74.942Z"
     id="path6279" />
  <path
     class="cls-2"
     d="m 145.3625,74.817 c -34.485,-20.842 -50.764,-84.874 -104.007,-46.61 -53.243,38.264 -31.165,116.878 19.857,135.891 51.022,19.013 116.665,8.272 135.138,-27.048 31.565,-60.352 -27.849,-48.252 -50.988,-62.233 z"
     id="path6281"
     style="fill:url(#linearGradient8360)"
     inkscape:connector-curvature="0" />
  <g
     class="cls-4"
     clip-path="url(#clip-path-2)"
     id="g6285">
    <path
       class="cls-5"
       d="M5.9,149.024s29.411-29.492,78.534-15.5,78.045,2,71.946-72.159c0,0,69.044,9.633,60.192,58.693C205.828,179.6,67.161,202.319,5.9,149.024Z"
       id="path6283"
       style="fill:url(#linear-gradient-4)" />
  </g>
  <path
     class="cls-8"
     d="M95.607,48.2l-0.466-1.335L94.675,48.2a4.661,4.661,0,0,1-2.589,2.636h0a4.66,4.66,0,0,1,2.589,2.636l0.466,1.335,0.466-1.335A4.661,4.661,0,0,1,98.2,50.837h0A4.661,4.661,0,0,1,95.607,48.2Z"
     id="path6307" />
  <path
     class="cls-8"
     d="M53.5,124.5l-0.466-1.335L52.573,124.5a4.661,4.661,0,0,1-2.589,2.636h0a4.661,4.661,0,0,1,2.589,2.636l0.466,1.335,0.466-1.335a4.66,4.66,0,0,1,2.589-2.636h0A4.66,4.66,0,0,1,53.5,124.5Z"
     id="path6309" />
  <path
     class="cls-8"
     d="M179.729,116.458l-0.308-.881-0.307.881a3.075,3.075,0,0,1-1.708,1.739h0a3.075,3.075,0,0,1,1.708,1.739l0.307,0.881,0.308-.881a3.075,3.075,0,0,1,1.708-1.739h0A3.075,3.075,0,0,1,179.729,116.458Z"
     id="path6311" />
  <path
     class="cls-8"
     d="M33.155,72.168l-0.308-.881-0.307.881a3.074,3.074,0,0,1-1.708,1.739h0a3.075,3.075,0,0,1,1.708,1.739l0.307,0.881,0.308-.881a3.075,3.075,0,0,1,1.708-1.739h0A3.075,3.075,0,0,1,33.155,72.168Z"
     id="path6313" />
  <path
     class="cls-10"
     d="M114.8,135.305h33.8a13.3,13.3,0,0,0,13.217-11.846l4.874-50.731h-33.78l-0.69,29.415Z"
     id="path6323" />
  <path
     class="cls-11"
     d="M114.8,134.759l4.477-.163,5.138-.156c1.984-.072,4.223-0.092,6.664-0.146l7.885-.153,8.8-.078,0.573,0,0.229,0,0.288-.016c0.369-.029.8-0.024,1.124-0.082s0.653-.089.993-0.164,0.688-.162,1.028-0.262a11.919,11.919,0,0,0,3.8-1.956,12.1,12.1,0,0,0,4.549-7.254l0.168-1.08,0.119-1.214,0.238-2.425,0.472-4.816,0.93-9.366,1.766-16.594L165.385,77.1l0.536-4.446a0.776,0.776,0,0,1,1.544.148l-0.32,4.467-0.922,11.769L164.8,105.664l-0.87,9.371-0.454,4.818-0.228,2.426-0.114,1.215c-0.057.46-.132,0.888-0.2,1.334a14.4,14.4,0,0,1-10.2,11.158c-0.414.116-.836,0.2-1.252,0.3s-0.877.129-1.312,0.189-0.789.042-1.186,0.067l-0.288.011h-0.346l-0.573,0-8.8-.078-7.885-.153c-2.442-.054-4.68-0.075-6.664-0.146l-5.138-.156-4.477-.163A0.547,0.547,0,0,1,114.8,134.759Z"
     id="path6325" />
  <line
     class="cls-12"
     x1="134.13"
     y1="136.264"
     x2="134.13"
     y2="172.092"
     id="line6327" />
  <polygon
     transform="matrix(0.4921726,0,0,1.4749508,57.522775,-48.767047)"
     class="cls-25"
     points="42.453,93.389 44.587,102.694 53.55,102.694 55.855,93.389 "
     id="polygon6399-2"
     style="fill:#4d4d4d;fill-opacity:0.63203466" />
  <rect
     style="opacity:1;fill:#19ac08;fill-opacity:1;stroke:#194208;stroke-width:0;stroke-linecap:round;stroke-linejoin:round;stroke-miterlimit:4;stroke-dasharray:none;stroke-dashoffset:0;stroke-opacity:1"
     id="rect8377-41-5"
     width="15.92744"
     height="0.49607846"
     x="-80.118523"
     y="83.744789"
     transform="matrix(0.01270178,-0.99991933,0.96671539,0.25585415,0,0)"
     inkscape:transform-center-x="0.08216642"
     inkscape:transform-center-y="7.5674501" />
  <path
     style="fill:#ffffff;fill-opacity:0.63203466;stroke:#000000;stroke-width:0;stroke-linecap:butt;stroke-linejoin:miter;stroke-miterlimit:4;stroke-dasharray:none;stroke-opacity:1"
     d="m 78.885728,95.258383 c 0.242504,-0.04214 0.485009,-0.09131 0.727513,-0.01217 0.244001,0.006 0.417393,0.110814 0.753826,-0.01261 0.204039,-0.02418 0.390421,-0.101328 0.632766,-0.01059 0.180243,0.0063 0.319038,0.09546 0.554794,-0.0093 0.313717,-0.0055 0.587334,-0.12136 0.94147,-0.01575 0.150092,0.02261 0.286483,0.06806 0.495955,-0.0083 0.109123,-0.07095 0.238694,-0.06011 0.378996,-0.0063 l 1.118591,-0.01871 -0.611021,7.536917 h -4.411343 z"
     id="path8426"
     inkscape:connector-curvature="0"
     sodipodi:nodetypes="cccccccccccc" />
  <rect
     class="cls-11"
     x="31.563"
     y="102.698"
     width="108.948"
     height="1.695"
     transform="translate(172.075 207.09) rotate(180)"
     id="rect6329" />
  <polygon
     class="cls-13"
     points="127.663 178.855 128.82 183 123.19 184.706 121.429 179.588 127.663 178.855"
     id="polygon6331" />
  <polygon
     class="cls-13"
     points="93.675 175.847 93.675 179.175 98.659 179.175 99.216 175.847 93.675 175.847"
     id="polygon6333" />
  <path
     class="cls-14"
     d="m 131.958,79.567 -7.528,18.582 -0.167,0.413 c -0.43798,1.074239 -1.48492,1.77444 -2.645,1.769 l -20.04238,-6.027125 c -1.936088,-0.01726 -1.733099,-3.536176 0.18218,-3.819812 l 19.4202,3.469937 -2.812,2.181 5.068,-19.4 c 1.51667,-5.805331 10.22467,-3.530331 8.708,2.275 -0.0504,0.189114 -0.1118,0.375101 -0.184,0.557 z"
     id="path6335"
     inkscape:connector-curvature="0"
     style="fill:#efc9a3"
     sodipodi:nodetypes="ccccccccccc" />
  <path
     class="cls-14"
     d="m 101.7578,90.484063 -7.320002,-0.152 a 3.478,3.478 0 0 0 -3.277,3.649 H 101.8478 Z"
     id="path6337"
     inkscape:connector-curvature="0"
     style="fill:#efc9a3" />
  <path
     class="cls-15"
     d="M120.106,81.829l11.721,2.862,1.923-10.446a5.06,5.06,0,0,0-4.312-5.892h0a5.152,5.152,0,0,0-5.584,3.281Z"
     id="path6339" />
  <path
     class="cls-16"
     d="M132.224,102.143L96.111,120.469a9.448,9.448,0,0,0-5.156,8.978l2.72,46.4h5.541l7.476-49.645,28.116-19.741Z"
     id="path6341" />
  <path
     class="cls-17"
     d="M125.851,38.771s10.035-3.412,15.308,6.092a9.6,9.6,0,0,0,1.05,1.566c1.071,1.264,3.3,3.594,5.765,4.349,9.766,3,15.947,21.464-3.493,23.107-24.328,2.057-31.236-2.741-27.756-12.439,2.482-6.916.266-11.826,0.266-11.826Z"
     id="path6343" />
  <path
     class="cls-18"
     d="M133.863,63.557l-5.193,2.31a8.472,8.472,0,0,0-5.036,7.837c0.08,6.818,1.627,23.746,7.387,30.224h17.557C151.3,91.935,149.731,73.5,149.731,73.5a8.681,8.681,0,0,0-7.638-8.956Z"
     id="path6345" />
  <path
     class="cls-14"
     d="M134.346,69.147h0a3.362,3.362,0,0,1-3.723-2.912l-1.428-11.159,6.679-.776,1.419,11.082A3.362,3.362,0,0,1,134.346,69.147Z"
     id="path6347" />
  <path
     class="cls-13"
     d="M119.277,45.563H135.8a0,0,0,0,1,0,0v9.8a8.129,8.129,0,0,1-8.129,8.129H127.4a8.126,8.126,0,0,1-8.126-8.126V45.563a0,0,0,0,1,0,0Z"
     transform="translate(-5.985 16.966) rotate(-7.437)"
     id="path6349" />
  <path
     class="cls-17"
     d="M136.371,50.559l-1.4,2.9s-1.862,1.613-2.389-2.44c-0.447-3.433-2.939-2.837-2.939-2.837s-8.538,6.459-13.554,2.027c-3.958-3.5,2.439-9.9,9.759-11.435l9.6,4.195Z"
     id="path6351" />
  <circle
     class="cls-13"
     cx="136.697"
     cy="53.249"
     r="2.71"
     transform="translate(-5.406 16.803) rotate(-6.898)"
     id="circle6353" />
  <circle
     class="cls-8"
     cx="136.697"
     cy="54.457"
     r="0.488"
     transform="translate(-5.549 16.804) rotate(-6.895)"
     id="circle6355" />
  <path
     class="cls-8"
     d="M122.365,58.7l4.6-.978s0.221,2-2.3,2.358A1.868,1.868,0,0,1,122.365,58.7Z"
     id="path6357" />
  <path
     class="cls-11"
     d="M148.578,103.928H131.021L102.934,120.9a7.7,7.7,0,0,0-3.066,9.69l21.56,49,6.234-.733-11.588-47.283c9.725-.411,27.784-1.88,32.5-7.139C156.564,115.532,148.578,103.928,148.578,103.928Z"
     id="path6359" />
  <ellipse
     class="cls-21"
     cx="46.668427"
     cy="95.670036"
     rx="2.9218264"
     ry="3.5465753"
     transform="rotate(-18.308068)"
     id="ellipse6369"
     style="fill:#ecf2f5;stroke-width:0.99959844" />
  <path
     class="cls-13"
     d="M145.7,79.059L138.154,98l-0.166.418a2.866,2.866,0,0,1-2.673,1.8l-21.44-.141a1.584,1.584,0,0,1-.222-3.152l21.209-3.14L132.023,96l5.054-19.748a4.542,4.542,0,1,1,8.8,2.252A5.008,5.008,0,0,1,145.7,79.059Z"
     id="path6371" />
  <path
     class="cls-15"
     d="M133.8,81.4l11.721,2.916,1.923-10.641a5.142,5.142,0,0,0-4.312-6h0a5.142,5.142,0,0,0-5.584,3.342Z"
     id="path6375" />
  <path
     class="cls-23"
     d="M119.535,180.729l-2.735,2.7-6.145,1.5a1.925,1.925,0,0,0-1.361,1.233l-0.312.889a0.671,0.671,0,0,0,.647.893l19.781-.48a1.118,1.118,0,0,0,1.091-1.209l-1.56-5.6-2.989.715a3.669,3.669,0,0,1-3-.311l-1.063-.619A1.949,1.949,0,0,0,119.535,180.729Z"
     id="path6377" />
  <path
     class="cls-23"
     d="M91.144,176.843l-2.735,2.7-6.145,1.5a1.925,1.925,0,0,0-1.361,1.233l-0.312.889a0.671,0.671,0,0,0,.647.893l17.9-.378a1.118,1.118,0,0,0,1.091-1.208l-0.465-5.725-2.207.733a3.669,3.669,0,0,1-3-.311l-1.063-.619A1.949,1.949,0,0,0,91.144,176.843Z"
     id="path6379" />
  <path
     class="cls-24"
     d="M49.807,94.539s8.284,0.029,6.563-8.5C56.37,86.042,47.679,86.9,49.807,94.539Z"
     id="path6393" />
  <path
     class="cls-24"
     d="M48.769,94.081s-8.386.03-6.644-8.6C42.125,85.48,50.923,86.35,48.769,94.081Z"
     id="path6395" />
  <path
     class="cls-24"
     d="M49.154,94.111s-6.107-6.154,1.1-11.579C50.249,82.532,56.036,89.689,49.154,94.111Z"
     id="path6397" />
  <polygon
     class="cls-25"
     points="55.855 93.389 42.453 93.389 44.587 102.694 53.55 102.694 55.855 93.389"
     id="polygon6399" />
  <line
     class="cls-26"
     x1="82.485"
     y1="104.392"
     x2="82.485"
     y2="170.018"
     id="line6401" />
  <path
     style="fill:#277f0b;fill-opacity:1;stroke:#194208;stroke-width:0.4811914;stroke-linecap:butt;stroke-linejoin:miter;stroke-miterlimit:4;stroke-dasharray:none;stroke-opacity:1"
     d="m 85.220411,102.60598 10.861978,-0.0575 1.551708,-8.883194 -14.175091,0.04904 z"
     id="path7792"
     inkscape:connector-curvature="0"
     sodipodi:nodetypes="ccccc" />
  <path
     style="fill:#277f0b;fill-opacity:1;stroke:#194208;stroke-width:0.48151234;stroke-linecap:butt;stroke-linejoin:miter;stroke-miterlimit:4;stroke-dasharray:none;stroke-opacity:1"
     d="m 83.459006,93.714257 1.731183,3.231666 h 10.810615 l 1.633293,-3.280711 z"
     id="path7794"
     inkscape:connector-curvature="0" />
  <path
     class="cls-14"
     d="m 114.12543,96.862591 -6.77647,-0.140597 a 3.2197545,3.2170805 0 0 0 -3.03368,3.375246 h 9.89348 z"
     id="path6337-6"
     inkscape:connector-curvature="0"
     style="fill:#ffe0bc;stroke-width:0.92536438;fill-opacity:1" />
  <rect
     style="opacity:1;fill:#194208;fill-opacity:1;stroke:#194208;stroke-width:0;stroke-linecap:round;stroke-linejoin:round;stroke-miterlimit:4;stroke-dasharray:none;stroke-dashoffset:0;stroke-opacity:1"
     id="rect8377"
     width="4.1587634"
     height="0.48070791"
     x="-21.039013"
     y="123.55044"
     transform="matrix(0.63545221,-0.7721402,0.75911179,0.65096029,0,0)"
     inkscape:transform-center-x="1.244495"
     inkscape:transform-center-y="1.5341437" />
  <rect
     style="opacity:1;fill:#194208;fill-opacity:1;stroke:#194208;stroke-width:0;stroke-linecap:round;stroke-linejoin:round;stroke-miterlimit:4;stroke-dasharray:none;stroke-dashoffset:0;stroke-opacity:1"
     id="rect8377-4"
     width="4.1767759"
     height="0.4786019"
     x="-132.07045"
     y="-46.637444"
     transform="matrix(-0.44197534,-0.8970272,-0.88960864,0.45672362,0,0)"
     inkscape:transform-center-x="-0.86436865"
     inkscape:transform-center-y="1.7857288" />
  <rect
     style="opacity:1;fill:#19ac08;fill-opacity:1;stroke:#194208;stroke-width:0;stroke-linecap:round;stroke-linejoin:round;stroke-miterlimit:4;stroke-dasharray:none;stroke-dashoffset:0;stroke-opacity:1"
     id="rect8377-41"
     width="3.4204366"
     height="0.3855007"
     x="-119.02879"
     y="6.97189"
     transform="matrix(-0.72702091,-0.68661531,-0.53111969,0.84729681,0,0)"
     inkscape:transform-center-x="-1.1750729"
     inkscape:transform-center-y="1.1248602" />
  <polygon
     transform="matrix(0.4921726,0,0,1.4749508,57.522775,-48.767047)"
     class="cls-25"
     points="55.855,93.389 42.453,93.389 44.587,102.694 53.55,102.694 "
     id="polygon6399-2-3"
     style="fill:#4d4d4d;fill-opacity:0.35497837" />
</svg>
