<?xml version="1.0" encoding="UTF-8" standalone="no"?>
<svg
   xmlns:dc="http://purl.org/dc/elements/1.1/"
   xmlns:cc="http://creativecommons.org/ns#"
   xmlns:rdf="http://www.w3.org/1999/02/22-rdf-syntax-ns#"
   xmlns:svg="http://www.w3.org/2000/svg"
   xmlns="http://www.w3.org/2000/svg"
   xmlns:xlink="http://www.w3.org/1999/xlink"
   xmlns:sodipodi="http://sodipodi.sourceforge.net/DTD/sodipodi-0.dtd"
   xmlns:inkscape="http://www.inkscape.org/namespaces/inkscape"
   id="Layer_2"
   data-name="Layer 2"
   viewBox="0 0 1200 656"
   version="1.1"
   sodipodi:docname="video-frame.svg"
   inkscape:version="0.92.4 (5da689c313, 2019-01-14)">
  <metadata
     id="metadata2257">
    <rdf:RDF>
      <cc:Work
         rdf:about="">
        <dc:format>image/svg+xml</dc:format>
        <dc:type
           rdf:resource="http://purl.org/dc/dcmitype/StillImage" />
      </cc:Work>
    </rdf:RDF>
  </metadata>
  <sodipodi:namedview
     pagecolor="#ffffff"
     bordercolor="#666666"
     borderopacity="1"
     objecttolerance="10"
     gridtolerance="10"
     guidetolerance="10"
     inkscape:pageopacity="0"
     inkscape:pageshadow="2"
     inkscape:window-width="1920"
     inkscape:window-height="986"
     id="namedview2255"
     showgrid="false"
     inkscape:lockguides="true"
     inkscape:zoom="0.20064155"
     inkscape:cx="-145.56281"
     inkscape:cy="612.02282"
     inkscape:window-x="-11"
     inkscape:window-y="-11"
     inkscape:window-maximized="1"
     inkscape:current-layer="Layer_2" />
  <defs
     id="defs1988">
    <style
       id="style1974">.cls-1{fill:#00bfd8;}.cls-2{fill:#009193;}.cls-3{opacity:0.2;}.cls-17,.cls-4{fill:#fff;}.cls-5{fill:#e1e1e1;}.cls-6{fill:url(#Degradado_sin_nombre_4);}.cls-7{fill:#007cf8;}.cls-8{fill:#003948;}.cls-9{fill:#008bef;}.cls-10{fill:#182632;}.cls-11{fill:#dc3645;}.cls-12{opacity:0.8;fill:url(#Degradado_sin_nombre_4-2);}.cls-13{fill:#bbb;}.cls-14{fill:#384444;}.cls-15{fill:#436867;opacity:0.57;}.cls-16{fill:#f1bc03;}.cls-17{opacity:0.5;}.cls-18{fill:#f68e37;}.cls-19{fill:#faf8a8;}.cls-20{fill:#ffd04d;}.cls-21{fill:#ffd469;}.cls-22{fill:#fcc53a;}.cls-23{fill:#3c3c71;}.cls-24{fill:#eaba42;}.cls-25{fill:#33c8cb;}.cls-26{opacity:0.1;}.cls-27{fill:#00eeed;}.cls-28{opacity:0.11;}</style>
    <linearGradient
       id="Degradado_sin_nombre_4"
       x1="176.648"
       y1="546.724"
       x2="176.648"
       y2="367.08"
       gradientUnits="userSpaceOnUse">
      <stop
         offset="0"
         stop-color="#fff"
         id="stop1976" />
      <stop
         offset="0.216"
         stop-color="#fff"
         stop-opacity="0.763"
         id="stop1978" />
      <stop
         offset="0.604"
         stop-color="#fff"
         stop-opacity="0.356"
         id="stop1980" />
      <stop
         offset="0.874"
         stop-color="#fff"
         stop-opacity="0.1"
         id="stop1982" />
      <stop
         offset="1"
         stop-color="#fff"
         stop-opacity="0"
         id="stop1984" />
    </linearGradient>
    <linearGradient
       id="Degradado_sin_nombre_4-2"
       x1="601.111"
       y1="-994.248"
       x2="601.111"
       y2="729.523"
       xlink:href="#Degradado_sin_nombre_4" />
  </defs>
  <title
     id="title1990">video-frame</title>
  <rect
     class="cls-1"
     width="1200"
     height="656"
     id="rect1992"
     style="fill:#00f7d8;fill-opacity:1" />
  <path
     style="fill:#00db93;fill-opacity:1;stroke:#000000;stroke-width:0;stroke-linecap:butt;stroke-linejoin:miter;stroke-miterlimit:4;stroke-dasharray:none;stroke-opacity:1"
     d="M -1.57e-5,441.26001 V 656 H 1200 V 441.26001 c -407.52987,-60.23895 -803.83435,-30.67474 -1200.0000157,0 z"
     id="path6059"
     inkscape:connector-curvature="0"
     sodipodi:nodetypes="ccccc" />
  <ellipse
     class="cls-3"
     cx="176.649"
     cy="592.705"
     rx="67.263"
     ry="10.061"
     id="ellipse1996" />
  <path
     class="cls-4"
     d="M233.067,507.159a28.523,28.523,0,1,0-8.664,55.649c0.3,0,.584-0.011.873-0.019A28.523,28.523,0,0,0,233.067,507.159Zm-0.25,41.289A16.545,16.545,0,1,1,240.8,534.2,16.493,16.493,0,0,1,232.817,548.448Z"
     id="path1998" />
  <path
     class="cls-5"
     d="M224.339,550.839a16.493,16.493,0,0,0,8.478-2.39c-1.426,5.887-3.792,11.025-7.541,14.341-0.289.009-.577,0.017-0.873,0.019a28.522,28.522,0,1,1,8.664-55.649c0.446,3.089,1.093,8.19,1.442,14.144A16.55,16.55,0,1,0,224.339,550.839Z"
     id="path2000" />
  <path
     class="cls-4"
     d="M227.775,494.472l0.216,40.308a51.616,51.616,0,0,1-103.23.554l-0.217-40.308Z"
     id="path2002" />
  <path
     class="cls-5"
     d="M211.991,592.862l-70.607.379a7.2,7.2,0,0,1-7.217-7.14h0a7.2,7.2,0,0,1,7.14-7.216l70.607-.379a7.2,7.2,0,0,1,7.217,7.14h0A7.2,7.2,0,0,1,211.991,592.862Z"
     id="path2004" />
  <path
     class="cls-5"
     d="M217.123,566.74a51.706,51.706,0,0,1-12.941,11.807l-55.143.3a51.64,51.64,0,0,1-24.278-43.509l-0.217-40.308,30.747-.165,0.058,10.765a61.445,61.445,0,0,0,61.774,61.114h0Z"
     id="path2006" />
  <path
     class="cls-6"
     d="M157.46,481.03s-11.851-8.57-8.394-25.359,17.283-19.258,13.332-45.429-5.926-49.873,5.432-63.7h37.034s-12.962,35.183-4.074,58.885,1.053,33.454-6.819,46.787,3.979,28.815,3.979,28.815H157.46Z"
     id="path2008" />
  <rect
     class="cls-3"
     x="1007.7751"
     y="185.00459"
     width="104.377"
     height="83.268997"
     id="rect2010"
     style="opacity:0.2" />
  <rect
     class="cls-4"
     x="1007.7751"
     y="177.1606"
     width="104.377"
     height="83.268997"
     id="rect2012"
     style="fill:#ffffff" />
  <path
     class="cls-7"
     d="m 1007.7761,156.05261 v 21.368 h 104.372 v -21.368 z m 14.247,15.416 a 5.145,5.145 0 0 1 -5.143,-5.137 v -0.006 a 5.1365,5.1365 0 0 1 10.273,0 v 0.006 a 5.134,5.134 0 0 1 -5.13,5.137 z m 75.885,0 a 5.139,5.139 0 0 1 -5.137,-5.137 v -0.006 a 5.1365,5.1365 0 0 1 10.273,0 v 0.006 a 5.135,5.135 0 0 1 -5.136,5.137 z"
     id="path2014"
     style="fill:#007c02;fill-opacity:1"
     inkscape:connector-curvature="0" />
  <path
     class="cls-7"
     d="m 1112.1491,166.33161 v 11.088 h -104.373 v -11.088 h 9.1 a 5.1365,5.1365 0 1 0 10.273,0 h 65.618 a 5.1365,5.1365 0 1 0 10.273,0 h 9.1 z"
     id="path2016"
     style="fill:#00f320;fill-opacity:1"
     inkscape:connector-curvature="0" />
  <path
     class="cls-4"
     d="m 1019.7251,144.48061 h 4.586 a 1,1 0 0 1 1,1 v 20.7 a 0.151,0.151 0 0 1 -0.151,0.151 h -6.284 a 0.151,0.151 0 0 1 -0.151,-0.151 v -20.7 a 1,1 0 0 1 1,-1 z"
     id="path2018"
     inkscape:connector-curvature="0"
     style="fill:#ffffff" />
  <path
     class="cls-4"
     d="m 1095.6151,144.48061 h 4.586 a 1,1 0 0 1 1,1 v 20.7 a 0.151,0.151 0 0 1 -0.151,0.151 h -6.288 a 0.151,0.151 0 0 1 -0.151,-0.151 v -20.7 a 1,1 0 0 1 1.004,-1 z"
     id="path2020"
     inkscape:connector-curvature="0"
     style="fill:#ffffff" />
  <path
     class="cls-8"
     d="m 1037.2411,198.02561 c 6.068,0 7.424,-2.927 8.638,-6.282 h 5.283 v 49.972 h -7.853 v -38.122 h -6.068 z"
     id="path2022"
     inkscape:connector-curvature="0"
     style="fill:#003948" />
  <path
     class="cls-8"
     d="m 1072.1481,198.30661 c -2.5,0 -4.069,1.356 -4.069,4.926 v 5.354 h -7.424 v -4.85 c 0,-8 4,-12.565 11.707,-12.565 7.707,0 11.708,4.569 11.708,12.565 0,15.705 -15.634,21.559 -15.634,29.769 a 5.419,5.419 0 0 0 0.071,1.071 h 14.849 v 7.139 h -22.7 v -6.139 c 0,-14.706 15.562,-17.133 15.562,-31.553 -10e-4,-4.499 -1.571,-5.717 -4.07,-5.717 z"
     id="path2024"
     inkscape:connector-curvature="0"
     style="fill:#003948" />
  <g
     class="cls-3"
     id="g2028">
    <circle
       cx="141.401"
       cy="128.289"
       r="71.055"
       id="circle2026" />
  </g>
  <circle
     class="cls-9"
     cx="141.401"
     cy="121.043"
     r="71.055"
     id="circle2030"
     style="fill:#008b22;fill-opacity:1" />
  <path
     class="cls-4"
     d="M141.4,186.5a65.455,65.455,0,1,1,65.455-65.455A65.529,65.529,0,0,1,141.4,186.5Z"
     id="path2032" />
  <rect
     class="cls-10"
     x="139.125"
     y="61.539"
     width="2.45"
     height="13.651"
     id="rect2034" />
  <rect
     class="cls-10"
     x="139.125"
     y="166.547"
     width="2.45"
     height="13.651"
     id="rect2036" />
  <rect
     class="cls-10"
     x="81.021"
     y="119.643"
     width="13.651"
     height="2.45"
     id="rect2038" />
  <rect
     class="cls-10"
     x="186.029"
     y="119.643"
     width="13.651"
     height="2.45"
     id="rect2040" />
  <rect
     class="cls-10"
     x="170.651"
     y="82.517"
     width="13.651"
     height="2.45"
     transform="translate(-7.233 150.022) rotate(-45)"
     id="rect2042" />
  <rect
     class="cls-10"
     x="96.399"
     y="156.769"
     width="13.651"
     height="2.45"
     transform="translate(-81.485 119.266) rotate(-45)"
     id="rect2044" />
  <rect
     class="cls-10"
     x="102"
     y="76.917"
     width="2.45"
     height="13.651"
     transform="translate(-28.981 97.518) rotate(-45)"
     id="rect2046" />
  <rect
     class="cls-10"
     x="176.251"
     y="151.168"
     width="2.45"
     height="13.651"
     transform="translate(-59.738 171.756) rotate(-44.997)"
     id="rect2048" />
  <g
     class="cls-3"
     id="g2052">
    <path
       d="M206.855,121.043q0,1.88-.105,3.738a65.456,65.456,0,0,0-130.7,0q-0.105-1.858-.105-3.738A65.455,65.455,0,0,1,206.855,121.043Z"
       id="path2050" />
  </g>
  <rect
     class="cls-11"
     x="150.032"
     y="112.344"
     width="2.1"
     height="24.874"
     transform="translate(-20.375 219.643) rotate(-68.508)"
     id="rect2054" />
  <polygon
     class="cls-10"
     points="141.401 121.918 103.224 121.918 103.224 119.818 139.3 119.818 139.3 90.185 141.401 90.185 141.401 121.918"
     id="polygon2056" />
  <circle
     class="cls-12"
     cx="601.111"
     cy="335.342"
     r="305.387"
     id="circle2058" />
  <ellipse
     class="cls-3"
     cx="614.205"
     cy="512.318"
     rx="270.723"
     ry="19.646"
     id="ellipse2060" />
  <path
     class="cls-10"
     d="M387.556,104.522H824.818a14.023,14.023,0,0,1,14.023,14.023V380.087a0,0,0,0,1,0,0H372.533a0,0,0,0,1,0,0V119.545A15.023,15.023,0,0,1,387.556,104.522Z"
     id="path2062" />
  <path
     class="cls-4"
     d="M797.04,421.888H414.334a41.8,41.8,0,0,1-41.8-41.8H838.842A41.8,41.8,0,0,1,797.04,421.888Z"
     id="path2064" />
  <rect
     class="cls-5"
     x="563.074"
     y="421.888"
     width="84.617"
     height="70.413"
     id="rect2066" />
  <rect
     class="cls-13"
     x="563.074"
     y="421.888"
     width="84.617"
     height="22.321"
     id="rect2068" />
  <path
     class="cls-4"
     d="M519.573,492.3h171.62a12,12,0,0,1,12,12v14.785a0,0,0,0,1,0,0H507.573a0,0,0,0,1,0,0V504.3A12,12,0,0,1,519.573,492.3Z"
     id="path2070" />
  <path
     class="cls-14"
     d="M399.388,124.611a7.326,7.326,0,0,0-7.3,7.305v5.248L642.308,353.5H685.15L420.4,124.611H399.388Z"
     id="path2072" />
  <path
     class="cls-14"
     d="M392.083,217.1V346.2a7.327,7.327,0,0,0,7.3,7.305H606.017L392.083,168.541V217.1Z"
     id="path2074" />
  <path
     class="cls-14"
     d="M811.378,124.611H524.627L789.372,353.5h22.006a7.327,7.327,0,0,0,7.305-7.305V131.916A7.327,7.327,0,0,0,811.378,124.611Z"
     id="path2076" />
  <polygon
     class="cls-15"
     points="505.447 124.611 420.404 124.611 685.15 353.504 710.226 353.504 789.372 353.504 524.627 124.611 505.447 124.611"
     id="polygon2078" />
  <polygon
     class="cls-15"
     points="392.083 168.541 606.017 353.504 642.308 353.504 392.083 137.164 392.083 168.541"
     id="polygon2080" />
  <circle
     class="cls-13"
     cx="603.735"
     cy="399.585"
     r="13.187"
     id="circle2082" />
  <polygon
     class="cls-3"
     points="833.596 635 375.881 635 436.32 539.059 773.157 539.059 833.596 635"
     id="polygon2090" />
  <polygon
     class="cls-5"
     points="818.23 605.404 390.232 605.404 431.912 539.059 776.55 539.059 818.23 605.404"
     id="polygon2092" />
  <rect
     class="cls-13"
     x="390.232"
     y="605.404"
     width="427.998"
     height="15.025"
     id="rect2094" />
  <polygon
     class="cls-4"
     points="454.779 550.771 433.15 550.771 436.32 543.971 457.261 543.971 454.779 550.771"
     id="polygon2096" />
  <polygon
     class="cls-4"
     points="457.579 550.771 460.314 543.971 481.256 543.971 479.208 550.771 457.579 550.771"
     id="polygon2098" />
  <polygon
     class="cls-4"
     points="482.008 550.771 484.308 543.971 505.25 543.971 503.637 550.771 482.008 550.771"
     id="polygon2100" />
  <polygon
     class="cls-4"
     points="506.516 550.771 508.382 543.971 529.324 543.971 528.145 550.771 506.516 550.771"
     id="polygon2102" />
  <polygon
     class="cls-4"
     points="530.972 550.771 532.403 543.971 553.344 543.971 552.601 550.771 530.972 550.771"
     id="polygon2104" />
  <polygon
     class="cls-4"
     points="555.428 550.771 556.423 543.971 577.365 543.971 577.056 550.771 555.428 550.771"
     id="polygon2106" />
  <polygon
     class="cls-4"
     points="579.82 550.771 580.381 543.971 601.322 543.971 601.449 550.771 579.82 550.771"
     id="polygon2108" />
  <polygon
     class="cls-4"
     points="604.058 550.771 604.184 543.971 625.126 543.971 625.687 550.771 604.058 550.771"
     id="polygon2110" />
  <polygon
     class="cls-4"
     points="628.451 550.771 628.142 543.971 649.083 543.971 650.079 550.771 628.451 550.771"
     id="polygon2112" />
  <polygon
     class="cls-4"
     points="652.906 550.771 652.163 543.971 673.104 543.971 674.535 550.771 652.906 550.771"
     id="polygon2114" />
  <polygon
     class="cls-4"
     points="677.362 550.771 676.183 543.971 697.125 543.971 698.99 550.771 677.362 550.771"
     id="polygon2116" />
  <polygon
     class="cls-4"
     points="701.87 550.771 700.257 543.971 721.199 543.971 723.499 550.771 701.87 550.771"
     id="polygon2118" />
  <polygon
     class="cls-4"
     points="726.299 550.771 724.251 543.971 745.193 543.971 747.928 550.771 726.299 550.771"
     id="polygon2120" />
  <polygon
     class="cls-4"
     points="750.728 550.771 772.357 550.771 769.187 543.971 748.246 543.971 750.728 550.771"
     id="polygon2122" />
  <polygon
     class="cls-4"
     points="450.289 563.482 427.865 563.482 431.151 556.431 452.863 556.431 450.289 563.482"
     id="polygon2124" />
  <polygon
     class="cls-4"
     points="453.192 563.482 456.028 556.431 477.739 556.431 475.616 563.482 453.192 563.482"
     id="polygon2126" />
  <polygon
     class="cls-4"
     points="478.52 563.482 480.904 556.431 502.616 556.431 500.943 563.482 478.52 563.482"
     id="polygon2128" />
  <polygon
     class="cls-4"
     points="503.929 563.482 505.863 556.431 527.574 556.431 526.353 563.482 503.929 563.482"
     id="polygon2130" />
  <polygon
     class="cls-4"
     points="529.284 563.482 530.767 556.431 552.478 556.431 551.707 563.482 529.284 563.482"
     id="polygon2132" />
  <polygon
     class="cls-4"
     points="554.638 563.482 555.671 556.431 577.382 556.431 577.062 563.482 554.638 563.482"
     id="polygon2134" />
  <polygon
     class="cls-4"
     points="579.927 563.482 580.509 556.431 602.22 556.431 602.351 563.482 579.927 563.482"
     id="polygon2136" />
  <polygon
     class="cls-4"
     points="605.057 563.482 605.187 556.431 626.899 556.431 627.48 563.482 605.057 563.482"
     id="polygon2138" />
  <polygon
     class="cls-4"
     points="630.346 563.482 630.025 556.431 651.737 556.431 652.77 563.482 630.346 563.482"
     id="polygon2140" />
  <polygon
     class="cls-4"
     points="655.7 563.482 654.93 556.431 676.641 556.431 678.124 563.482 655.7 563.482"
     id="polygon2142" />
  <polygon
     class="cls-4"
     points="681.055 563.482 679.833 556.431 701.545 556.431 703.479 563.482 681.055 563.482"
     id="polygon2144" />
  <polygon
     class="cls-4"
     points="706.464 563.482 704.792 556.431 726.503 556.431 728.888 563.482 706.464 563.482"
     id="polygon2146" />
  <polygon
     class="cls-4"
     points="731.791 563.482 729.668 556.431 751.38 556.431 754.215 563.482 731.791 563.482"
     id="polygon2148" />
  <polygon
     class="cls-4"
     points="757.119 563.482 779.542 563.482 776.256 556.431 754.544 556.431 757.119 563.482"
     id="polygon2150" />
  <polygon
     class="cls-4"
     points="446.263 575.968 423.167 575.968 426.551 568.706 448.914 568.706 446.263 575.968"
     id="polygon2152" />
  <polygon
     class="cls-4"
     points="449.253 575.968 452.173 568.706 474.536 568.706 472.349 575.968 449.253 575.968"
     id="polygon2154" />
  <polygon
     class="cls-4"
     points="475.339 575.968 477.796 568.706 500.158 568.706 498.435 575.968 475.339 575.968"
     id="polygon2156" />
  <polygon
     class="cls-4"
     points="501.51 575.968 503.502 568.706 525.864 568.706 524.606 575.968 501.51 575.968"
     id="polygon2158" />
  <polygon
     class="cls-4"
     points="527.625 575.968 529.152 568.706 551.515 568.706 550.721 575.968 527.625 575.968"
     id="polygon2160" />
  <polygon
     class="cls-4"
     points="553.739 575.968 554.802 568.706 577.165 568.706 576.835 575.968 553.739 575.968"
     id="polygon2162" />
  <polygon
     class="cls-4"
     points="579.786 575.968 580.385 568.706 602.748 568.706 602.882 575.968 579.786 575.968"
     id="polygon2164" />
  <polygon
     class="cls-4"
     points="605.669 575.968 605.804 568.706 628.166 568.706 628.765 575.968 605.669 575.968"
     id="polygon2166" />
  <polygon
     class="cls-4"
     points="631.716 575.968 631.387 568.706 653.749 568.706 654.812 575.968 631.716 575.968"
     id="polygon2168" />
  <polygon
     class="cls-4"
     points="657.831 575.968 657.037 568.706 679.399 568.706 680.927 575.968 657.831 575.968"
     id="polygon2170" />
  <polygon
     class="cls-4"
     points="683.945 575.968 682.687 568.706 705.049 568.706 707.041 575.968 683.945 575.968"
     id="polygon2172" />
  <polygon
     class="cls-4"
     points="710.116 575.968 708.394 568.706 730.756 568.706 733.212 575.968 710.116 575.968"
     id="polygon2174" />
  <polygon
     class="cls-4"
     points="736.203 575.968 734.015 568.706 756.378 568.706 759.299 575.968 736.203 575.968"
     id="polygon2176" />
  <polygon
     class="cls-4"
     points="762.289 575.968 785.385 575.968 782 568.706 759.638 568.706 762.289 575.968"
     id="polygon2178" />
  <polygon
     class="cls-4"
     points="440.659 588.706 416.76 588.706 420.262 581.192 443.402 581.192 440.659 588.706"
     id="polygon2180" />
  <polygon
     class="cls-4"
     points="443.753 588.706 446.775 581.192 469.916 581.192 467.652 588.706 443.753 588.706"
     id="polygon2182" />
  <polygon
     class="cls-4"
     points="470.747 588.706 473.289 581.192 496.429 581.192 494.646 588.706 470.747 588.706"
     id="polygon2184" />
  <polygon
     class="cls-4"
     points="497.829 588.706 499.89 581.192 523.03 581.192 521.728 588.706 497.829 588.706"
     id="polygon2186" />
  <polygon
     class="cls-4"
     points="524.851 588.706 526.432 581.192 549.572 581.192 548.751 588.706 524.851 588.706"
     id="polygon2188" />
  <polygon
     class="cls-4"
     points="655.363 581.192 632.223 581.192 628.89 581.192 605.75 581.192 602.588 581.192 579.448 581.192 552.975 581.192 551.874 588.706 578.828 588.706 602.727 588.706 605.611 588.706 629.51 588.706 632.564 588.706 656.463 588.706 655.363 581.192"
     id="polygon2190" />
  <polygon
     class="cls-4"
     points="659.587 588.706 658.765 581.192 681.906 581.192 683.486 588.706 659.587 588.706"
     id="polygon2192" />
  <polygon
     class="cls-4"
     points="686.61 588.706 685.308 581.192 708.448 581.192 710.509 588.706 686.61 588.706"
     id="polygon2194" />
  <polygon
     class="cls-4"
     points="713.691 588.706 711.909 581.192 735.049 581.192 737.591 588.706 713.691 588.706"
     id="polygon2196" />
  <polygon
     class="cls-4"
     points="740.685 588.706 738.422 581.192 761.562 581.192 764.585 588.706 740.685 588.706"
     id="polygon2198" />
  <polygon
     class="cls-4"
     points="767.679 588.706 791.578 588.706 788.076 581.192 764.936 581.192 767.679 588.706"
     id="polygon2200" />
  <ellipse
     class="cls-3"
     cx="896.963"
     cy="587.918"
     rx="28.196"
     ry="44.634"
     transform="translate(-60.67 1070.754) rotate(-60)"
     id="ellipse2202" />
  <path
     class="cls-4"
     d="M935.164,598.008h-0.013a5.5,5.5,0,0,1-.686,1.789,0.013,0.013,0,0,1-.013.013c-8.084,13.087-51.217,5.609-56.019-5.958-0.417-1.009-.834-1.937-1.224-2.8-5.985-12.858-9.791-9.28-20.3-18a10.178,10.178,0,0,1-1.224-1.17c-0.04-.053-0.094-0.094-0.135-0.148-5.918-6.738,1.359-15.333,1.359-15.333q0.666-.524,1.331-1.009v-0.013a34.022,34.022,0,0,1,10.868-5.3,30.939,30.939,0,0,1,5.138-1C905.009,545.6,937.988,584.707,935.164,598.008Z"
     id="path2204" />
  <path
     class="cls-5"
     d="M934.451,599.811c-8.084,13.087-51.217,5.609-56.019-5.958-0.417-1.009-.834-1.937-1.224-2.8-6.026-12.8-10.114-8.917-20.3-18-0.443-.39-0.847-0.78-1.224-1.17-0.04-.053-0.094-0.094-0.135-0.148-5.918-6.738,1.359-15.333,1.359-15.333q0.666-.524,1.331-1.009c-0.86,2.488-1.681,8.11,5.138,13.571a23.476,23.476,0,0,0,5.313,3.08c1.493,0.645,4.492,2.918,9.845,10.383,8.567,11.93,7.4,13.45,26.4,18.655C923.516,606.186,933.993,600.08,934.451,599.811Z"
     id="path2206" />
  <path
     class="cls-5"
     d="M887.955,559.556c-11-9.128-18.843-9.468-18.843-9.468a30.939,30.939,0,0,1,5.138-1A27.643,27.643,0,0,1,887.955,559.556Z"
     id="path2208" />
  <path
     class="cls-4"
     d="M327.315,162.494c-18.45,1.885-19.977,3.412-21.862,21.862-1.885-18.45-3.412-19.978-21.862-21.862,18.45-1.884,19.977-3.412,21.862-21.862C307.337,159.082,308.865,160.61,327.315,162.494Z"
     id="path2210" />
  <path
     class="cls-4"
     d="M906.79,412.548c-18.45,1.885-19.977,3.412-21.862,21.862-1.885-18.45-3.412-19.978-21.862-21.862,18.45-1.884,19.978-3.412,21.862-21.862C886.813,409.136,888.34,410.663,906.79,412.548Z"
     id="path2212" />
  <path
     style="fill:#00af76;fill-opacity:1;stroke:#194208;stroke-width:0;stroke-linecap:round;stroke-linejoin:round;stroke-miterlimit:4;stroke-dasharray:none;stroke-opacity:1"
     d="m 972.44478,600.74288 -1.61989,-48.79419 -18.14176,-21.22163 14.70623,-7.37948 -18.56313,-37.76083 53.83317,-12.35968 28.216,17.0781 28.216,-17.82063 53.8331,13.10221 -20.0482,37.38957 20.0482,8.27578 -23.7952,18.82759 0.8907,51.0032 -58.4021,25.10456 z"
     id="path5978-7"
     inkscape:connector-curvature="0"
     sodipodi:nodetypes="ccccccccccccccc" />
  <path
     style="fill:#277f0b;fill-opacity:1;stroke:#194208;stroke-width:11.26160049;stroke-linecap:round;stroke-linejoin:round;stroke-miterlimit:4;stroke-dasharray:none;stroke-opacity:1"
     d="m 982.98244,590.65419 -7.79654,-43.06651 -25.98841,-16.33558 18.19191,-21.90452 -18.56317,-23.76083 53.83317,-26.35968 28.216,17.0781 28.216,-17.82063 53.8331,27.10221 -20.0482,23.38957 20.0482,22.27578 -27.8447,16.33558 -5.9402,40.83893 -47.5217,23.76084 z"
     id="path5978"
     inkscape:connector-curvature="0" />
  <path
     style="fill:#ffffed;fill-opacity:1;stroke:#194208;stroke-width:5.06771994;stroke-linecap:butt;stroke-linejoin:miter;stroke-miterlimit:4;stroke-dasharray:none;stroke-opacity:1"
     d="m 1031.1331,606.2755 0.2626,-68.78092 59.8551,-29.66506 -59.9864,-29.40254 -59.19886,29.5338 59.19886,29.27127 z"
     id="path5980"
     inkscape:connector-curvature="0" />
  <path
     style="fill:#277f0b;fill-opacity:1;stroke:#194208;stroke-width:5.06771994;stroke-linecap:butt;stroke-linejoin:round;stroke-miterlimit:4;stroke-dasharray:none;stroke-opacity:1"
     d="m 1031.3957,537.49458 28.9632,17.73584 49.7493,-24.50336 -21.162,-22.09015 z"
     id="path5982"
     inkscape:connector-curvature="0" />
  <path
     style="fill:#277f0b;fill-opacity:1;stroke:#194208;stroke-width:5.06771994;stroke-linecap:butt;stroke-linejoin:round;stroke-miterlimit:4;stroke-dasharray:none;stroke-opacity:1"
     d="m 1031.3957,537.49458 -28.9633,17.73584 -49.74927,-24.50336 21.16199,-22.09015 z"
     id="path5982-8"
     inkscape:connector-curvature="0" />
  <path
     style="fill:#277f0b;fill-opacity:1;stroke:#194208;stroke-width:4.46944761;stroke-linecap:butt;stroke-linejoin:round;stroke-miterlimit:4;stroke-dasharray:none;stroke-opacity:1"
     d="m 989.81895,513.74177 7.79652,-6.68273 8.07493,-4.73361 5.0121,2.50603 9.9313,4.91924 -4.2695,-5.66176 c 5.7622,-2.49211 12.6825,-4.88963 12.7157,-7.6109 l 2.8773,-2.50602 9.3744,2.78447 6.6629,6.79421 3.2684,4.25087 -14.5919,9.06603 6.0144,4.14759 -1.0171,-4.71109 5.882,-5.53243 1.0077,1.44661 1.6858,0.42483 2.9869,-7.10097 c 2.8898,-0.89538 5.6641,-0.71069 8.2081,1.3332 l 2.9045,2.72817 3.2713,-1.17894 3.1742,1.3739 5.9984,3.85049 13.5511,-6.21866 -59.074,-29.00332 -59.19886,29.5338 15.9899,7.5445 z"
     id="path6022"
     inkscape:connector-curvature="0"
     sodipodi:nodetypes="cccccccccccccccccccccccccccc" />
  <circle
     style="opacity:1;fill:#00db93;fill-opacity:1;stroke:#194208;stroke-width:0;stroke-linecap:round;stroke-linejoin:round;stroke-miterlimit:4;stroke-dasharray:none;stroke-dashoffset:0;stroke-opacity:1"
     id="path6063"
     cx="77.252197"
     cy="298.39709"
     r="21.182053" />
  <circle
     style="opacity:1;fill:#00db93;fill-opacity:1;stroke:#194208;stroke-width:0;stroke-linecap:round;stroke-linejoin:round;stroke-miterlimit:4;stroke-dasharray:none;stroke-dashoffset:0;stroke-opacity:1"
     id="path6065"
     cx="120.2393"
     cy="306.49612"
     r="34.265087" />
  <circle
     style="opacity:1;fill:#00db93;fill-opacity:1;stroke:#194208;stroke-width:0;stroke-linecap:round;stroke-linejoin:round;stroke-miterlimit:4;stroke-dasharray:none;stroke-dashoffset:0;stroke-opacity:1"
     id="path6065-5"
     cx="950.70038"
     cy="100.2826"
     r="34.265087" />
</svg>
